#include "pitches.h"

int senal = HIGH;
int over = HIGH;

const int DOOM[] PROGMEM = {
  NOTE_E2, 8, NOTE_E2, 8, NOTE_E3, 8, NOTE_E2, 8, NOTE_E2, 8, NOTE_D3, 8, NOTE_E2, 8, NOTE_E2, 8, //1
  NOTE_C3, 8, NOTE_E2, 8, NOTE_E2, 8, NOTE_AS2, 8, NOTE_E2, 8, NOTE_E2, 8, NOTE_B2, 8, NOTE_C3, 8,
  NOTE_E2, 8, NOTE_E2, 8, NOTE_E3, 8, NOTE_E2, 8, NOTE_E2, 8, NOTE_D3, 8, NOTE_E2, 8, NOTE_E2, 8,
  NOTE_C3, 8, NOTE_E2, 8, NOTE_E2, 8, NOTE_AS2, -2,

  NOTE_E2, 8, NOTE_E2, 8, NOTE_E3, 8, NOTE_E2, 8, NOTE_E2, 8, NOTE_D3, 8, NOTE_E2, 8, NOTE_E2, 8, //5
  NOTE_C3, 8, NOTE_E2, 8, NOTE_E2, 8, NOTE_AS2, 8, NOTE_E2, 8, NOTE_E2, 8, NOTE_B2, 8, NOTE_C3, 8,
  NOTE_E2, 8, NOTE_E2, 8, NOTE_E3, 8, NOTE_E2, 8, NOTE_E2, 8, NOTE_D3, 8, NOTE_E2, 8, NOTE_E2, 8,
  NOTE_C3, 8, NOTE_E2, 8, NOTE_E2, 8, NOTE_AS2, -2,

  NOTE_E2, 8, NOTE_E2, 8, NOTE_E3, 8, NOTE_E2, 8, NOTE_E2, 8, NOTE_D3, 8, NOTE_E2, 8, NOTE_E2, 8, //9
  NOTE_C3, 8, NOTE_E2, 8, NOTE_E2, 8, NOTE_AS2, 8, NOTE_E2, 8, NOTE_E2, 8, NOTE_B2, 8, NOTE_C3, 8,
  NOTE_E2, 8, NOTE_E2, 8, NOTE_E3, 8, NOTE_E2, 8, NOTE_E2, 8, NOTE_D3, 8, NOTE_E2, 8, NOTE_E2, 8,
  NOTE_C3, 8, NOTE_E2, 8, NOTE_E2, 8, NOTE_AS2, -2,

  NOTE_E2, 8, NOTE_E2, 8, NOTE_E3, 8, NOTE_E2, 8, NOTE_E2, 8, NOTE_D3, 8, NOTE_E2, 8, NOTE_E2, 8, //13
  NOTE_C3, 8, NOTE_E2, 8, NOTE_E2, 8, NOTE_AS2, 8, NOTE_E2, 8, NOTE_E2, 8, NOTE_B2, 8, NOTE_C3, 8,
  NOTE_E2, 8, NOTE_E2, 8, NOTE_E3, 8, NOTE_E2, 8, NOTE_E2, 8, NOTE_D3, 8, NOTE_E2, 8, NOTE_E2, 8,
  NOTE_FS3, -16, NOTE_D3, -16, NOTE_B2, -16, NOTE_A3, -16, NOTE_FS3, -16, NOTE_B2, -16, NOTE_D3, -16, NOTE_FS3, -16, NOTE_A3, -16, NOTE_FS3, -16, NOTE_D3, -16, NOTE_B2, -16,

  NOTE_E2, 8, NOTE_E2, 8, NOTE_E3, 8, NOTE_E2, 8, NOTE_E2, 8, NOTE_D3, 8, NOTE_E2, 8, NOTE_E2, 8, //17
  NOTE_C3, 8, NOTE_E2, 8, NOTE_E2, 8, NOTE_AS2, 8, NOTE_E2, 8, NOTE_E2, 8, NOTE_B2, 8, NOTE_C3, 8,
  NOTE_E2, 8, NOTE_E2, 8, NOTE_E3, 8, NOTE_E2, 8, NOTE_E2, 8, NOTE_D3, 8, NOTE_E2, 8, NOTE_E2, 8,
  NOTE_C3, 8, NOTE_E2, 8, NOTE_E2, 8, NOTE_AS2, -2,

  NOTE_E2, 8, NOTE_E2, 8, NOTE_E3, 8, NOTE_E2, 8, NOTE_E2, 8, NOTE_D3, 8, NOTE_E2, 8, NOTE_E2, 8, //21
  NOTE_C3, 8, NOTE_E2, 8, NOTE_E2, 8, NOTE_AS2, 8, NOTE_E2, 8, NOTE_E2, 8, NOTE_B2, 8, NOTE_C3, 8,
  NOTE_E2, 8, NOTE_E2, 8, NOTE_E3, 8, NOTE_E2, 8, NOTE_E2, 8, NOTE_D3, 8, NOTE_E2, 8, NOTE_E2, 8,
  NOTE_B3, -16, NOTE_G3, -16, NOTE_E3, -16, NOTE_G3, -16, NOTE_B3, -16, NOTE_E4, -16, NOTE_G3, -16, NOTE_B3, -16, NOTE_E4, -16, NOTE_B3, -16, NOTE_G4, -16, NOTE_B4, -16,

  NOTE_A2, 8, NOTE_A2, 8, NOTE_A3, 8, NOTE_A2, 8, NOTE_A2, 8, NOTE_G3, 8, NOTE_A2, 8, NOTE_A2, 8, //25
  NOTE_F3, 8, NOTE_A2, 8, NOTE_A2, 8, NOTE_DS3, 8, NOTE_A2, 8, NOTE_A2, 8, NOTE_E3, 8, NOTE_F3, 8,
  NOTE_A2, 8, NOTE_A2, 8, NOTE_A3, 8, NOTE_A2, 8, NOTE_A2, 8, NOTE_G3, 8, NOTE_A2, 8, NOTE_A2, 8,
  NOTE_F3, 8, NOTE_A2, 8, NOTE_A2, 8, NOTE_DS3, -2,

  NOTE_A2, 8, NOTE_A2, 8, NOTE_A3, 8, NOTE_A2, 8, NOTE_A2, 8, NOTE_G3, 8, NOTE_A2, 8, NOTE_A2, 8, //29
  NOTE_F3, 8, NOTE_A2, 8, NOTE_A2, 8, NOTE_DS3, 8, NOTE_A2, 8, NOTE_A2, 8, NOTE_E3, 8, NOTE_F3, 8,
  NOTE_A2, 8, NOTE_A2, 8, NOTE_A3, 8, NOTE_A2, 8, NOTE_A2, 8, NOTE_G3, 8, NOTE_A2, 8, NOTE_A2, 8,
  NOTE_A3, -16, NOTE_F3, -16, NOTE_D3, -16, NOTE_A3, -16, NOTE_F3, -16, NOTE_D3, -16, NOTE_C4, -16, NOTE_A3, -16, NOTE_F3, -16, NOTE_A3, -16, NOTE_F3, -16, NOTE_D3, -16,

  NOTE_E2, 8, NOTE_E2, 8, NOTE_E3, 8, NOTE_E2, 8, NOTE_E2, 8, NOTE_D3, 8, NOTE_E2, 8, NOTE_E2, 8, //33
  NOTE_C3, 8, NOTE_E2, 8, NOTE_E2, 8, NOTE_AS2, 8, NOTE_E2, 8, NOTE_E2, 8, NOTE_B2, 8, NOTE_C3, 8,
  NOTE_E2, 8, NOTE_E2, 8, NOTE_E3, 8, NOTE_E2, 8, NOTE_E2, 8, NOTE_D3, 8, NOTE_E2, 8, NOTE_E2, 8,
  NOTE_C3, 8, NOTE_E2, 8, NOTE_E2, 8, NOTE_AS2, -2,

  NOTE_E2, 8, NOTE_E2, 8, NOTE_E3, 8, NOTE_E2, 8, NOTE_E2, 8, NOTE_D3, 8, NOTE_E2, 8, NOTE_E2, 8, //37
  NOTE_C3, 8, NOTE_E2, 8, NOTE_E2, 8, NOTE_AS2, 8, NOTE_E2, 8, NOTE_E2, 8, NOTE_B2, 8, NOTE_C3, 8,
  NOTE_E2, 8, NOTE_E2, 8, NOTE_E3, 8, NOTE_E2, 8, NOTE_E2, 8, NOTE_D3, 8, NOTE_E2, 8, NOTE_E2, 8,
  NOTE_C3, 8, NOTE_E2, 8, NOTE_E2, 8, NOTE_AS2, -2,

  NOTE_CS3, 8, NOTE_CS3, 8, NOTE_CS4, 8, NOTE_CS3, 8, NOTE_CS3, 8, NOTE_B3, 8, NOTE_CS3, 8, NOTE_CS3, 8, //41
  NOTE_A3, 8, NOTE_CS3, 8, NOTE_CS3, 8, NOTE_G3, 8, NOTE_CS3, 8, NOTE_CS3, 8, NOTE_GS3, 8, NOTE_A3, 8,
  NOTE_B2, 8, NOTE_B2, 8, NOTE_B3, 8, NOTE_B2, 8, NOTE_B2, 8, NOTE_A3, 8, NOTE_B2, 8, NOTE_B2, 8,
  NOTE_G3, 8, NOTE_B2, 8, NOTE_B2, 8, NOTE_F3, -2,

  NOTE_E2, 8, NOTE_E2, 8, NOTE_E3, 8, NOTE_E2, 8, NOTE_E2, 8, NOTE_D3, 8, NOTE_E2, 8, NOTE_E2, 8, //45
  NOTE_C3, 8, NOTE_E2, 8, NOTE_E2, 8, NOTE_AS2, 8, NOTE_E2, 8, NOTE_E2, 8, NOTE_B2, 8, NOTE_C3, 8,
  NOTE_E2, 8, NOTE_E2, 8, NOTE_E3, 8, NOTE_E2, 8, NOTE_E2, 8, NOTE_D3, 8, NOTE_E2, 8, NOTE_E2, 8,
  NOTE_B3, -16, NOTE_G3, -16, NOTE_E3, -16, NOTE_G3, -16, NOTE_B3, -16, NOTE_E4, -16, NOTE_G3, -16, NOTE_B3, -16, NOTE_E4, -16, NOTE_B3, -16, NOTE_G4, -16, NOTE_B4, -16,

  NOTE_E2, 8, NOTE_E2, 8, NOTE_E3, 8, NOTE_E2, 8, NOTE_E2, 8, NOTE_D3, 8, NOTE_E2, 8, NOTE_E2, 8, //49
  NOTE_C3, 8, NOTE_E2, 8, NOTE_E2, 8, NOTE_AS2, 8, NOTE_E2, 8, NOTE_E2, 8, NOTE_B2, 8, NOTE_C3, 8,
  NOTE_E2, 8, NOTE_E2, 8, NOTE_E3, 8, NOTE_E2, 8, NOTE_E2, 8, NOTE_D3, 8, NOTE_E2, 8, NOTE_E2, 8,
  NOTE_C3, 8, NOTE_E2, 8, NOTE_E2, 8, NOTE_AS2, -2,

  NOTE_E2, 8, NOTE_E2, 8, NOTE_E3, 8, NOTE_E2, 8, NOTE_E2, 8, NOTE_D3, 8, NOTE_E2, 8, NOTE_E2, 8, //53
  NOTE_C3, 8, NOTE_E2, 8, NOTE_E2, 8, NOTE_AS2, 8, NOTE_E2, 8, NOTE_E2, 8, NOTE_B2, 8, NOTE_C3, 8,
  NOTE_E2, 8, NOTE_E2, 8, NOTE_E3, 8, NOTE_E2, 8, NOTE_E2, 8, NOTE_D3, 8, NOTE_E2, 8, NOTE_E2, 8,
  NOTE_FS3, -16, NOTE_DS3, -16, NOTE_B2, -16, NOTE_FS3, -16, NOTE_DS3, -16, NOTE_B2, -16, NOTE_G3, -16, NOTE_D3, -16, NOTE_B2, -16, NOTE_DS4, -16, NOTE_DS3, -16, NOTE_B2, -16,

// -/-

  NOTE_E2, 8, NOTE_E2, 8, NOTE_E3, 8, NOTE_E2, 8, NOTE_E2, 8, NOTE_D3, 8, NOTE_E2, 8, NOTE_E2, 8, //57
  NOTE_C3, 8, NOTE_E2, 8, NOTE_E2, 8, NOTE_AS2, 8, NOTE_E2, 8, NOTE_E2, 8, NOTE_B2, 8, NOTE_C3, 8,
  NOTE_E2, 8, NOTE_E2, 8, NOTE_E3, 8, NOTE_E2, 8, NOTE_E2, 8, NOTE_D3, 8, NOTE_E2, 8, NOTE_E2, 8,
  NOTE_C3, 8, NOTE_E2, 8, NOTE_E2, 8, NOTE_AS2, -2,

  NOTE_E2, 8, NOTE_E2, 8, NOTE_E3, 8, NOTE_E2, 8, NOTE_E2, 8, NOTE_D3, 8, NOTE_E2, 8, NOTE_E2, 8, //61
  NOTE_C3, 8, NOTE_E2, 8, NOTE_E2, 8, NOTE_AS2, 8, NOTE_E2, 8, NOTE_E2, 8, NOTE_B2, 8, NOTE_C3, 8,
  NOTE_E2, 8, NOTE_E2, 8, NOTE_E3, 8, NOTE_E2, 8, NOTE_E2, 8, NOTE_D3, 8, NOTE_E2, 8, NOTE_E2, 8,
  NOTE_E4, -16, NOTE_B3, -16, NOTE_G3, -16, NOTE_G4, -16, NOTE_E4, -16, NOTE_G3, -16, NOTE_B3, -16, NOTE_D4, -16, NOTE_E4, -16, NOTE_G4, -16, NOTE_E4, -16, NOTE_G3, -16,  

  NOTE_E2, 8, NOTE_E2, 8, NOTE_E3, 8, NOTE_E2, 8, NOTE_E2, 8, NOTE_D3, 8, NOTE_E2, 8, NOTE_E2, 8, //65
  NOTE_C3, 8, NOTE_E2, 8, NOTE_E2, 8, NOTE_AS2, 8, NOTE_E2, 8, NOTE_E2, 8, NOTE_B2, 8, NOTE_C3, 8,
  NOTE_E2, 8, NOTE_E2, 8, NOTE_E3, 8, NOTE_E2, 8, NOTE_E2, 8, NOTE_D3, 8, NOTE_E2, 8, NOTE_E2, 8,
  NOTE_C3, 8, NOTE_E2, 8, NOTE_E2, 8, NOTE_AS2, -2,

  NOTE_A2, 8, NOTE_A2, 8, NOTE_A3, 8, NOTE_A2, 8, NOTE_A2, 8, NOTE_G3, 8, NOTE_A2, 8, NOTE_A2, 8, //69
  NOTE_F3, 8, NOTE_A2, 8, NOTE_A2, 8, NOTE_DS3, 8, NOTE_A2, 8, NOTE_A2, 8, NOTE_E3, 8, NOTE_F3, 8,
  NOTE_A2, 8, NOTE_A2, 8, NOTE_A3, 8, NOTE_A2, 8, NOTE_A2, 8, NOTE_G3, 8, NOTE_A2, 8, NOTE_A2, 8,
  NOTE_A3, -16, NOTE_F3, -16, NOTE_D3, -16, NOTE_A3, -16, NOTE_F3, -16, NOTE_D3, -16, NOTE_C4, -16, NOTE_A3, -16, NOTE_F3, -16, NOTE_A3, -16, NOTE_F3, -16, NOTE_D3, -16,

  NOTE_E2, 8, NOTE_E2, 8, NOTE_E3, 8, NOTE_E2, 8, NOTE_E2, 8, NOTE_D3, 8, NOTE_E2, 8, NOTE_E2, 8, //73
  NOTE_C3, 8, NOTE_E2, 8, NOTE_E2, 8, NOTE_AS2, 8, NOTE_E2, 8, NOTE_E2, 8, NOTE_B2, 8, NOTE_C3, 8,
  NOTE_E2, 8, NOTE_E2, 8, NOTE_E3, 8, NOTE_E2, 8, NOTE_E2, 8, NOTE_D3, 8, NOTE_E2, 8, NOTE_E2, 8,
  NOTE_C3, 8, NOTE_E2, 8, NOTE_E2, 8, NOTE_AS2, -2,

  NOTE_E2, 8, NOTE_E2, 8, NOTE_E3, 8, NOTE_E2, 8, NOTE_E2, 8, NOTE_D3, 8, NOTE_E2, 8, NOTE_E2, 8, //77
  NOTE_C3, 8, NOTE_E2, 8, NOTE_E2, 8, NOTE_AS2, 8, NOTE_E2, 8, NOTE_E2, 8, NOTE_B2, 8, NOTE_C3, 8,
  NOTE_E2, 8, NOTE_E2, 8, NOTE_E3, 8, NOTE_E2, 8, NOTE_E2, 8, NOTE_D3, 8, NOTE_E2, 8, NOTE_E2, 8,
  NOTE_C3, 8, NOTE_E2, 8, NOTE_E2, 8, NOTE_AS2, -2,

  NOTE_E2, 8, NOTE_E2, 8, NOTE_E3, 8, NOTE_E2, 8, NOTE_E2, 8, NOTE_D3, 8, NOTE_E2, 8, NOTE_E2, 8, //81
  NOTE_C3, 8, NOTE_E2, 8, NOTE_E2, 8, NOTE_AS2, 8, NOTE_E2, 8, NOTE_E2, 8, NOTE_B2, 8, NOTE_C3, 8,
  NOTE_E2, 8, NOTE_E2, 8, NOTE_E3, 8, NOTE_E2, 8, NOTE_E2, 8, NOTE_D3, 8, NOTE_E2, 8, NOTE_E2, 8,
  NOTE_C3, 8, NOTE_E2, 8, NOTE_E2, 8, NOTE_AS2, -2,

  NOTE_E2, 8, NOTE_E2, 8, NOTE_E3, 8, NOTE_E2, 8, NOTE_E2, 8, NOTE_D3, 8, NOTE_E2, 8, NOTE_E2, 8, //73
  NOTE_C3, 8, NOTE_E2, 8, NOTE_E2, 8, NOTE_AS2, 8, NOTE_E2, 8, NOTE_E2, 8, NOTE_B2, 8, NOTE_C3, 8,
  NOTE_E2, 8, NOTE_E2, 8, NOTE_E3, 8, NOTE_E2, 8, NOTE_E2, 8, NOTE_D3, 8, NOTE_E2, 8, NOTE_E2, 8,
  NOTE_B3, -16, NOTE_G3, -16, NOTE_E3, -16, NOTE_B2, -16, NOTE_E3, -16, NOTE_G3, -16, NOTE_C4, -16, NOTE_B3, -16, NOTE_G3, -16, NOTE_B3, -16, NOTE_G3, -16, NOTE_E3, -16,  
};

int notes = sizeof(DOOM) / sizeof(DOOM[0]) / 2;
int wholenote = (240000) / 225;

int divider = 0, noteDuration = 0;

void setup() {
  // CONFIGURACION DE PUERTOS
  pinMode(A1, OUTPUT); // AN1 salida para el buzzer
  pinMode(2, INPUT); // Entrada de senal digital del microcontroladro 2
}

void loop() {
  for (int thisNote = 0; thisNote < notes * 2; thisNote = thisNote + 2) {
    // OBTENEMOS INFORMACION DEL OTRO MICROCONTROLADOR HACIENDO UNA LECTURA DEL PUERTO D2
    senal = digitalRead(2);
    over = digitalRead(3);
    // CALCULAMOS LA DURACION DE CADA NOTA CON ESTA FUNCION
    divider = pgm_read_word_near(225+thisNote + 1);
    if (divider > 0) {
      // regular note, just proceed
      noteDuration = (wholenote) / divider;
    } else if (divider < 0) {
      // dotted notes are represented with negative durations!!
      noteDuration = (wholenote) / abs(divider);
      noteDuration *= 1.5; // increases the duration in half for dotted notes
    }
    if(senal == LOW && over == HIGH){
      // Las notas de este tono fueron tomadas del codigo del codigo de robsoncouto en: https://github.com/robsoncouto/arduino-songs/blob/master/doom/doom.ino
      tone(A1, pgm_read_word_near(DOOM+thisNote), noteDuration * 0.9);
      delay(noteDuration);
      } else if(senal == HIGH && over == HIGH){
        // este sonido es de Mario y fue obtenido de la libreria de martinus96 en: https://forum.arduino.cc/index.php?topic=623141.0
        tone(A1, NOTE_G4, 47);
        delay(120);
        tone(A1, NOTE_GS4, 47);
        delay(48);
        tone(A1, NOTE_A5, 47);
        delay(96);
        tone(A1, NOTE_C6, 24);
        delay(24);
        tone(A1, NOTE_CS5, 24);
        delay(48);
        tone(A1, NOTE_C6, 24);
        delay(24);
        tone(A1, NOTE_CS5, 24);
        delay(24);
        tone(A1, NOTE_D5, 24);
        delay(24);
        tone(A1, NOTE_DS5, 25);
        delay(24);
        tone(A1, NOTE_E5, 48);
        delay(48);
        } else if(over == LOW){
          tone(A1,NOTE_G4);
          delay(250);
          tone(A1,NOTE_C4);
          delay(500);
          noTone(sAudioPin);
        }
        // Limpiamos el ultimo tono
        noTone(A1);
      }
}
